PathFileType  4	(X/Y/Z) C:\Users\antoi\Documents\MyRepositories\mobilecap\ResultsAnalysis
DataRate	CameraRate	NumFrames	NumMarkers	Units	OrigDataRate	OrigDataStartFrame	OrigNumFrames
100.0	100.0	5	51	mm	100.0	1	256
Frame#	Time	r_knee			r_shank_antsup			r_ankle			r_calc			r_5meta			r_toe			L_knee			L_shank_antsup			L_ankle			L_calc			L_5meta			L_toe			r_sh2			r_sh3			r_sh4			L_sh2			L_sh3			r_thigh1			r_thigh2			r_thigh3			r_thigh4			r_thigh5			L_thigh1			L_thigh2			L_thigh3			L_thigh4			r.ASIS			r.PSIS			L.ASIS			L.PSIS			C7			R_Shoulder			L_Shoulder			R_Sternum			L_Sternum			R_humerus			R_elbow_med			R_elbow_lat			R_forearm			R_wrist_radius			R_wrist_ulna			L_humerus			L_elbow_med			L_elbow_lat			L_forearm			L_wrist_radius			L_wrist_ulna			R_HJC			L_HJC			R_HJC_reg			L_HJC_reg			
		X1	Y1	Z1	X2	Y2	Z2	X3	Y3	Z3	X4	Y4	Z4	X5	Y5	Z5	X6	Y6	Z6	X7	Y7	Z7	X8	Y8	Z8	X9	Y9	Z9	X10	Y10	Z10	X11	Y11	Z11	X12	Y12	Z12	X13	Y13	Z13	X14	Y14	Z14	X15	Y15	Z15	X16	Y16	Z16	X17	Y17	Z17	X18	Y18	Z18	X19	Y19	Z19	X20	Y20	Z20	X21	Y21	Z21	X22	Y22	Z22	X23	Y23	Z23	X24	Y24	Z24	X25	Y25	Z25	X26	Y26	Z26	X27	Y27	Z27	X28	Y28	Z28	X29	Y29	Z29	X30	Y30	Z30	X31	Y31	Z31	X32	Y32	Z32	X33	Y33	Z33	X34	Y34	Z34	X35	Y35	Z35	X36	Y36	Z36	X37	Y37	Z37	X38	Y38	Z38	X39	Y39	Z39	X40	Y40	Z40	X41	Y41	Z41	X42	Y42	Z42	X43	Y43	Z43	X44	Y44	Z44	X45	Y45	Z45	X46	Y46	Z46	X47	Y47	Z47	X48	Y48	Z48	X49	Y49	Z49	X50	Y50	Z50	X51	Y51	Z51	

1	0.00000000	-1198.86454	808.70922	-427.24366	-1174.47145	712.98468	-435.74182	-1271.34962	399.74428	-445.88811	-1336.40848	365.22962	-489.69862	-1148.75514	350.85211	-415.83559	-1120.76856	378.83665	-472.84205	-1201.32358	812.10720	-718.24136	-1174.89568	728.71915	-705.54826	-1263.45545	405.93016	-702.81580	-1335.43349	361.47765	-661.07270	-1156.00135	350.89856	-740.26416	-1111.46103	374.27771	-682.57530	-1190.90020	600.92882	-439.12306	-1234.79706	719.98098	-390.75010	-1257.72801	606.35303	-390.19312	-1252.28055	749.35625	-748.25355	-1268.96550	628.20652	-752.19977	-1121.38597	1081.11977	-406.74793	-1125.43523	970.89233	-424.16580	-1176.41619	943.25006	-388.33519	-1232.34301	1077.63619	-382.55237	-1229.01078	962.85200	-400.01893	-1101.89753	1052.14931	-728.32635	-1106.27778	913.89876	-706.14140	-1204.75651	1049.64206	-773.05082	-1209.54251	919.04232	-741.21221	-1082.38990	1271.16440	-449.11987	-1284.21680	1325.36594	-534.93429	-1075.75892	1272.99523	-702.75923	-1278.05286	1325.79673	-630.91811	-1260.26267	1771.40467	-574.56839	-1192.87648	1746.58533	-408.84594	-1179.64282	1747.28296	-727.76145	-1129.40102	1706.17814	-547.42755	-1131.41300	1709.97244	-592.82103	-1154.33421	1615.68756	-355.04539	-1246.62030	1413.70482	-394.93352	-1222.23668	1424.03814	-338.05588	-1166.17653	1360.34998	-315.98544	-1103.89062	1201.38956	-344.10916	-1140.41786	1197.55545	-311.43804	-1142.38557	1608.96310	-787.33615	-1217.22046	1405.87320	-741.45395	-1185.24761	1419.37978	-814.16544	-1130.61291	1365.37520	-824.19761	-1072.82079	1195.75958	-799.62227	-1106.45946	1196.88988	-839.67983	-1174.29175	1193.18286	-478.05513	-1167.07025	1195.25184	-667.46874	-1164.80544	1202.60308	-490.53670	-1154.07338	1203.35312	-657.65431	
2	0.01000000	-1198.44786	808.65505	-427.28596	-1174.22891	712.76611	-435.81719	-1271.23487	399.76220	-445.97935	-1336.47512	365.18255	-489.82604	-1148.76454	350.87054	-415.83597	-1120.82860	378.92513	-472.88988	-1201.21785	812.36791	-718.81801	-1174.77017	728.64618	-705.70088	-1263.52123	405.85005	-702.83680	-1335.45995	361.43654	-661.12077	-1156.03899	350.89128	-740.44305	-1111.58735	374.23775	-682.59058	-1190.82598	600.66959	-439.04283	-1234.29977	720.19150	-390.84324	-1257.67172	606.35152	-390.24379	-1252.20891	749.24491	-748.32446	-1268.98018	628.17517	-752.17572	-1121.47864	1080.98646	-406.58920	-1125.30137	970.88781	-424.24407	-1176.21518	943.28185	-388.63091	-1232.34341	1077.53525	-382.54516	-1228.91096	962.64403	-400.07449	-1102.03653	1052.21327	-728.81555	-1106.26681	913.87178	-706.39868	-1204.80679	1049.55805	-773.15224	-1209.59664	918.98077	-741.31185	-1082.46472	1271.12612	-449.09991	-1284.18489	1325.37410	-534.95568	-1075.70453	1272.97538	-702.90763	-1278.04194	1325.81348	-631.11861	-1259.79378	1771.40569	-574.81342	-1192.49214	1746.56680	-408.78593	-1179.33144	1747.15239	-727.77100	-1128.98776	1706.05803	-547.75461	-1130.74888	1709.98582	-592.68136	-1153.86587	1615.49287	-355.34542	-1246.26102	1413.68914	-394.92640	-1221.77310	1423.98851	-338.08732	-1165.83636	1360.25719	-316.17870	-1103.59829	1201.27273	-344.36773	-1140.00192	1197.50206	-311.71869	-1142.10194	1608.82961	-787.35915	-1217.30755	1405.82015	-742.11031	-1185.01510	1419.38031	-814.31029	-1130.53883	1365.21086	-824.25988	-1072.86926	1195.65505	-800.13004	-1106.56106	1196.69594	-840.10356	-1174.34285	1193.16381	-478.15067	-1167.05948	1195.24879	-667.56174	-1164.82181	1202.54205	-490.52323	-1154.13876	1203.30616	-657.75756	
3	0.02000000	-1198.06025	808.59304	-427.37575	-1173.95075	712.56349	-435.89317	-1271.18905	399.68171	-446.00388	-1336.53719	365.11975	-489.86517	-1148.76375	350.87594	-415.83906	-1120.89161	378.99248	-472.88929	-1201.41527	812.25902	-718.49661	-1174.58926	728.56444	-705.88748	-1263.58375	405.78857	-702.82293	-1335.48820	361.41300	-661.16787	-1156.06894	350.88339	-740.50076	-1111.63702	374.26810	-682.60636	-1190.66098	600.38022	-439.20214	-1234.42122	719.83420	-391.04348	-1257.58620	606.37545	-390.30857	-1252.09662	749.17878	-748.42870	-1268.95780	628.06450	-752.26040	-1121.52697	1080.92620	-406.54614	-1125.19112	970.88116	-424.27595	-1176.15707	943.21097	-388.78750	-1232.42660	1077.41524	-382.51904	-1228.80060	962.44858	-400.18741	-1102.09070	1052.12067	-729.09376	-1106.31601	913.78614	-706.55367	-1204.80686	1049.49758	-773.37223	-1209.63000	918.92077	-741.41336	-1082.55575	1271.07725	-449.05407	-1284.17236	1325.36640	-534.97535	-1075.73377	1272.93556	-702.95023	-1278.01544	1325.81287	-631.21267	-1259.32335	1771.40845	-574.88314	-1191.97578	1746.49037	-408.76493	-1178.91603	1747.06274	-727.83594	-1128.59749	1705.91843	-547.87516	-1130.06446	1709.89156	-592.77854	-1153.43128	1615.32414	-355.58732	-1245.65258	1413.78740	-395.08052	-1221.24360	1423.96858	-338.18667	-1165.45190	1360.08395	-316.36301	-1103.29528	1201.16513	-344.62917	-1139.68792	1197.31544	-312.07440	-1141.69415	1608.64933	-787.43345	-1217.13354	1405.81095	-742.34230	-1184.78511	1419.38554	-814.33472	-1130.32807	1365.09307	-824.54983	-1072.92255	1195.46763	-800.41251	-1106.74283	1196.47176	-840.32660	-1174.41973	1193.13466	-478.18020	-1167.08526	1195.22376	-667.58926	-1164.90217	1202.48286	-490.50566	-1154.19940	1203.25897	-657.79827	
4	0.03000000	-1197.69712	808.55743	-427.52083	-1173.65941	712.41086	-435.94642	-1271.23389	399.58710	-445.98841	-1336.59031	365.06878	-489.85345	-1148.76965	350.86617	-415.84331	-1120.96492	379.04841	-472.82675	-1201.71269	811.97933	-717.74171	-1174.39214	728.42819	-706.01953	-1263.61760	405.76736	-702.89850	-1335.51844	361.40908	-661.21745	-1156.09095	350.89077	-740.45510	-1111.62330	374.34741	-682.62804	-1190.46069	600.10294	-439.48765	-1234.73124	719.27957	-391.25452	-1257.48817	606.35656	-390.39650	-1251.95308	749.14220	-748.52111	-1268.88718	627.96519	-752.44201	-1121.66153	1080.94138	-406.58105	-1125.12656	970.88402	-424.25816	-1176.11909	943.07118	-388.81597	-1232.53458	1077.28982	-382.51184	-1228.69337	962.27157	-400.40245	-1102.13533	1051.91829	-729.31611	-1106.36657	913.70497	-706.65668	-1204.77725	1049.44682	-773.65885	-1209.64235	918.87507	-741.48459	-1082.67592	1270.98109	-448.96870	-1284.17343	1325.34077	-535.00608	-1075.81123	1272.87734	-702.96694	-1277.99009	1325.80454	-631.22776	-1258.74333	1771.39210	-574.84167	-1191.36290	1746.38366	-408.73479	-1178.38997	1746.99433	-727.88192	-1128.13812	1705.76911	-547.87286	-1129.43794	1709.62364	-593.00735	-1152.97568	1615.20100	-355.73578	-1245.02610	1413.91970	-395.28874	-1220.71874	1423.96988	-338.32806	-1165.04178	1359.89456	-316.48896	-1103.01511	1200.98384	-344.91500	-1139.42995	1197.04026	-312.44705	-1141.11937	1608.43233	-787.50299	-1216.56693	1405.83454	-742.02953	-1184.54253	1419.42121	-814.30691	-1130.11525	1364.98570	-824.82623	-1072.98717	1195.15520	-800.57225	-1106.96462	1196.26185	-840.44610	-1174.53228	1193.07110	-478.18780	-1167.14796	1195.18369	-667.59465	-1165.03891	1202.38298	-490.47492	-1154.28427	1203.18962	-657.83250	
5	0.04000000	-1197.45956	808.57291	-427.62658	-1173.39157	712.28649	-435.98916	-1271.30290	399.57213	-445.95901	-1336.65310	365.02911	-489.86257	-1148.84311	350.86477	-415.82268	-1121.06113	379.12703	-472.72726	-1201.62394	812.00937	-717.75087	-1174.19037	728.20564	-706.06882	-1263.62216	405.80473	-703.17185	-1335.55745	361.40983	-661.23830	-1156.11571	350.91993	-740.43837	-1111.64791	374.40037	-682.64180	-1190.31217	599.88603	-439.64300	-1234.51340	719.11908	-391.32111	-1257.40340	606.27696	-390.47513	-1251.79099	749.12811	-748.60898	-1268.75315	627.96862	-752.68271	-1121.71865	1080.94269	-406.60539	-1125.06715	970.89644	-424.25695	-1175.99097	942.92563	-388.84791	-1232.56737	1077.15958	-382.58731	-1228.60023	962.11276	-400.68591	-1102.18530	1051.75546	-729.61149	-1106.36685	913.68462	-706.75943	-1204.75225	1049.36310	-773.89185	-1209.63947	918.83294	-741.52495	-1082.80992	1270.83684	-448.88158	-1284.17235	1325.30721	-535.04649	-1075.87065	1272.82055	-703.05833	-1277.98137	1325.79527	-631.24184	-1258.02190	1771.37962	-574.87523	-1190.72729	1746.29799	-408.67268	-1177.77103	1746.92574	-727.92743	-1127.54882	1705.62197	-547.87706	-1128.91553	1709.32064	-593.12922	-1152.42966	1615.11372	-355.78228	-1244.54816	1413.93808	-395.50997	-1220.20026	1423.95600	-338.56070	-1164.64859	1359.74843	-316.62639	-1102.77309	1200.72367	-345.18545	-1139.15842	1196.79394	-312.70216	-1140.47999	1608.24411	-787.49425	-1215.88935	1405.80209	-741.54361	-1184.27006	1419.44768	-814.27369	-1130.18571	1364.80792	-824.69350	-1073.09798	1194.76572	-800.85852	-1107.15248	1196.08658	-840.66608	-1174.65315	1192.97241	-478.23772	-1167.22210	1195.14698	-667.64203	-1165.18088	1202.24653	-490.44554	-1154.40242	1203.09626	-657.92119	
